<svg width="637" height="389" viewBox="0 0 637 389" fill="none" xmlns="http://www.w3.org/2000/svg">
<path d="M2.68316 268.711C2.68316 282.295 0.135281 298.605 6.01355 311.249C17.8966 336.809 48.5081 355.282 72.4701 367.563C98.7045 381.008 134.962 393.72 164.207 382.55C182.877 375.419 198.809 356.282 202.961 336.833C205.451 325.169 202.677 320.678 190.397 320.483C184.09 320.383 174.484 318.567 171.928 326.236C162.895 353.333 215.96 373.941 233.54 378.765C286.261 393.231 347.463 379.807 386.89 340.92C400.589 327.408 415.606 308.387 396.124 293.235C391.493 289.632 387.025 287.379 381.138 287.785C376.673 288.093 369.178 293.367 369.178 298.382C369.178 306.797 387.954 307.508 392.945 308.221C419.372 311.997 443.057 311.179 467.576 299.441C501.88 283.019 531.743 251.576 552.804 220.42C576.313 185.643 593.906 143.314 604.577 102.796C611.668 75.8721 617.378 48.7208 626.679 22.4126C627.581 19.8613 634.742 1.8189 634.853 4.70097C635.835 30.2332 632.592 55.963 632.128 81.4515C631.997 88.6838 632.128 89.4209 632.128 81.7543C632.128 71.4099 632.128 61.0654 632.128 50.721C632.128 35.381 632.767 -10.6258 632.128 4.70097C631.882 10.608 624.707 16.2148 621.229 20.4447C615.82 27.0232 608.688 34.1054 602.155 39.5188C595.071 45.3885 589.538 52.4384 583.081 58.8956" stroke="black" stroke-width="3" stroke-linecap="round"/>
</svg>
