<svg width="31" height="31" viewBox="0 0 31 31" fill="none" xmlns="http://www.w3.org/2000/svg">
<path fill-rule="evenodd" clip-rule="evenodd" d="M14.9864 0C14.0818 0 13.3417 0.186008 12.7546 0.532649C12.1614 0.882861 11.7883 1.35955 11.5644 1.83155C11.3458 2.29256 11.2731 2.73935 11.2515 3.05874C11.2405 3.22114 11.2421 3.35875 11.2471 3.46015C11.2495 3.51108 11.2528 3.55356 11.2559 3.58622C11.2575 3.60258 11.259 3.61654 11.2603 3.62793L11.2621 3.64311L11.2629 3.64924L11.2633 3.65193L11.2634 3.65318C11.2635 3.65348 11.2635 3.65377 11.379 3.63835L11.4174 3.95318C11.4588 4.29188 11.5186 4.77977 11.5921 5.37671C11.7391 6.57054 11.9412 8.20081 12.1614 9.94634C12.6008 13.4299 13.115 17.3953 13.4066 19.2539C13.6252 20.6473 13.9826 22.2458 14.5192 23.7932C14.3447 24.3915 14.1402 24.9706 13.9014 25.5095C13.0198 27.4991 11.8266 28.6375 10.2058 28.6375C8.53042 28.6375 7.17257 27.4862 6.0874 25.5178C5.01343 23.5696 4.35502 21.0623 4.02265 18.9439C3.73694 17.1229 3.22685 13.1317 2.78615 9.57703C2.5663 7.80377 2.36446 6.14529 2.21758 4.93006C2.14414 4.32248 2.08445 3.82577 2.04313 3.481L1.99549 3.08296L1.98309 2.97904L1.97993 2.95254L1.97913 2.94587L1.97894 2.9442L1.97889 2.94379C1.97888 2.9437 1.97887 2.94366 0.985887 3.0619C-0.00709806 3.18014 -0.0070918 3.18019 -0.00708 3.18029L-0.00702832 3.18073L-0.00682465 3.18244L-0.00601903 3.1892L-0.00283859 3.21588L0.00961008 3.32017L0.0573435 3.71903C0.0987373 4.06437 0.158507 4.56173 0.232032 5.17005C0.379074 6.38662 0.581168 8.04723 0.801341 9.82311C1.24068 13.3667 1.75501 17.394 2.04682 19.2539C2.3974 21.4884 3.10492 24.2504 4.33592 26.4833C5.55573 28.696 7.44192 30.6375 10.2058 30.6375C12.9721 30.6375 14.67 28.6441 15.6741 26.4439C15.6813 26.4571 15.6885 26.4702 15.6957 26.4833C16.9155 28.696 18.8017 30.6375 21.5655 30.6375C24.3839 30.6375 26.0932 28.5685 27.0897 26.3198C28.0954 24.0502 28.5344 21.286 28.7087 19.1814C29.0729 14.7833 29.3035 12.475 29.7669 7.8358C29.8588 6.9153 29.9599 5.90304 30.073 4.76448L30.0773 4.7213L30.0773 4.72127C30.1377 4.11744 30.2516 2.97646 29.8354 1.97364C29.6067 1.42276 29.2175 0.904043 28.5995 0.535468C27.9936 0.174155 27.2403 0 26.3461 0C25.4416 0 24.7015 0.186008 24.1144 0.532649C23.5212 0.882861 23.1481 1.35955 22.9242 1.83154C22.7056 2.29256 22.6329 2.73935 22.6113 3.05874C22.6003 3.22114 22.6019 3.35875 22.6068 3.46015C22.6093 3.51108 22.6126 3.55356 22.6157 3.58622C22.6173 3.60258 22.6188 3.61654 22.6201 3.62793L22.6219 3.64311L22.6227 3.64924L22.6229 3.65071L22.6231 3.65193L22.6232 3.65318L25.3547 24.3877L25.7087 24.3411C25.575 24.7451 25.4263 25.1369 25.2612 25.5095C24.3795 27.4991 23.1864 28.6375 21.5655 28.6375C19.8902 28.6375 18.5324 27.4862 17.4472 25.5178C17.1359 24.9532 16.8596 24.3416 16.616 23.7062C17.0196 22.1291 17.2379 20.5215 17.3489 19.1814C17.7131 14.7834 17.9437 12.4751 18.407 7.83611C18.499 6.91553 18.6001 5.90317 18.7132 4.76448L18.7176 4.7213V4.72128C18.7779 4.11745 18.8919 2.97646 18.4756 1.97364C18.2469 1.42276 17.8577 0.904043 17.2397 0.535468C16.6338 0.174155 15.8805 0 14.9864 0ZM15.3689 18.8572C15.7271 14.544 15.9593 12.2195 16.4172 7.63442C16.5091 6.71433 16.6101 5.70321 16.723 4.56672C16.7904 3.88925 16.8311 3.22871 16.6284 2.74038C16.5425 2.53345 16.4173 2.37367 16.2153 2.25319C16.0011 2.12545 15.6288 2 14.9864 2C14.3543 2 13.9846 2.129 13.7714 2.25488C13.5642 2.37719 13.4465 2.53052 13.3715 2.68856C13.2914 2.85756 13.2573 3.0408 13.2469 3.19393C13.2469 3.1942 13.2469 3.19447 13.2469 3.19475C13.3384 3.18365 13.3384 3.18368 13.3384 3.18372L13.3384 3.18413L13.3386 3.18576L13.3394 3.1923L13.3426 3.21829L13.355 3.32019L13.4026 3.71056C13.444 4.04872 13.5037 4.53598 13.5771 5.13223C13.724 6.32477 13.9258 7.95302 14.1457 9.69606C14.5795 13.1352 15.0806 16.9992 15.3689 18.8572ZM26.7155 19.0164C26.7091 19.0936 26.7023 19.1716 26.6952 19.2503L24.6068 3.39737L24.6067 3.39671C24.6063 3.39199 24.6053 3.3806 24.6045 3.36348C24.6027 3.32706 24.6017 3.26779 24.6067 3.19393C24.6171 3.0408 24.6511 2.85756 24.7313 2.68856C24.8062 2.53052 24.924 2.37719 25.1312 2.25488C25.3444 2.129 25.7141 2 26.3461 2C26.9886 2 27.3608 2.12545 27.575 2.25319C27.7771 2.37367 27.9023 2.53345 27.9882 2.74038C28.1909 3.22871 28.1502 3.88925 28.0828 4.56672C27.9699 5.70315 27.8689 6.71422 27.777 7.63427C27.3134 12.2755 27.0812 14.6005 26.7155 19.0164Z" fill="black"/>
</svg>
